<mxfile host="app.diagrams.net" modified="2024-06-19T20:11:07.885Z" agent="Mozilla/5.0 (Windows NT 10.0; Win64; x64) AppleWebKit/537.36 (KHTML, like Gecko) Chrome/125.0.0.0 Safari/537.36" etag="vhB9ewrZbVUCMCs3Jg1L" version="24.5.5" type="device">
  <diagram name="Page-1" id="bLqNmkRba2NGORORPSZ6">
    <mxGraphModel dx="403" dy="2700" grid="1" gridSize="10" guides="1" tooltips="1" connect="1" arrows="1" fold="1" page="1" pageScale="1" pageWidth="2000" pageHeight="700" math="0" shadow="0">
      <root>
        <mxCell id="0" />
        <mxCell id="1" parent="0" />
        <mxCell id="y0Fj-1lW7r01eOwDqa-p-22" value="" style="rounded=0;whiteSpace=wrap;html=1;fillColor=default;fillStyle=auto;" parent="1" vertex="1">
          <mxGeometry x="2030" y="-970" width="1580" height="940" as="geometry" />
        </mxCell>
        <mxCell id="y0Fj-1lW7r01eOwDqa-p-24" value="" style="rounded=1;whiteSpace=wrap;html=1;fillColor=#BFBFBF;fontColor=#333333;strokeColor=#666666;movable=1;resizable=1;rotatable=1;deletable=1;editable=1;locked=0;connectable=1;" parent="1" vertex="1">
          <mxGeometry x="2050" y="-952.5" width="210" height="900" as="geometry" />
        </mxCell>
        <mxCell id="y0Fj-1lW7r01eOwDqa-p-25" value="&lt;font style=&quot;font-size: 32px;&quot;&gt;Learny&lt;/font&gt;" style="rounded=1;whiteSpace=wrap;html=1;fillColor=#0A0A0A;fontColor=#FCFCFC;fontSize=16;movable=1;resizable=1;rotatable=1;deletable=1;editable=1;locked=0;connectable=1;" parent="1" vertex="1">
          <mxGeometry x="2060" y="-902.5" width="190" height="60" as="geometry" />
        </mxCell>
        <mxCell id="y0Fj-1lW7r01eOwDqa-p-26" value="Main Page" style="rounded=1;whiteSpace=wrap;html=1;fontSize=16;" parent="1" vertex="1">
          <mxGeometry x="2060" y="-752.5" width="190" height="40" as="geometry" />
        </mxCell>
        <mxCell id="y0Fj-1lW7r01eOwDqa-p-27" value="Schedule" style="rounded=1;whiteSpace=wrap;html=1;fontSize=16;fillColor=#d5e8d4;strokeColor=#82b366;" parent="1" vertex="1">
          <mxGeometry x="2060" y="-692.5" width="190" height="40" as="geometry" />
        </mxCell>
        <mxCell id="y0Fj-1lW7r01eOwDqa-p-28" value="Courses" style="rounded=1;whiteSpace=wrap;html=1;fontSize=16;" parent="1" vertex="1">
          <mxGeometry x="2060" y="-632.5" width="190" height="40" as="geometry" />
        </mxCell>
        <mxCell id="y0Fj-1lW7r01eOwDqa-p-29" value="Sprawdziany" style="rounded=1;whiteSpace=wrap;html=1;fontSize=16;" parent="1" vertex="1">
          <mxGeometry x="2060" y="-572.5" width="190" height="40" as="geometry" />
        </mxCell>
        <mxCell id="y0Fj-1lW7r01eOwDqa-p-30" value="Oceny końcowe" style="rounded=1;whiteSpace=wrap;html=1;fontSize=16;" parent="1" vertex="1">
          <mxGeometry x="2060" y="-512.5" width="190" height="40" as="geometry" />
        </mxCell>
        <mxCell id="y0Fj-1lW7r01eOwDqa-p-32" value="Decyzje" style="rounded=1;whiteSpace=wrap;html=1;fontSize=16;" parent="1" vertex="1">
          <mxGeometry x="2060" y="-392.5" width="190" height="40" as="geometry" />
        </mxCell>
        <mxCell id="y0Fj-1lW7r01eOwDqa-p-33" value="Profil" style="rounded=1;whiteSpace=wrap;html=1;fontSize=16;" parent="1" vertex="1">
          <mxGeometry x="2060" y="-822.5" width="190" height="40" as="geometry" />
        </mxCell>
        <mxCell id="y0Fj-1lW7r01eOwDqa-p-34" value="" style="line;strokeWidth=2;html=1;" parent="1" vertex="1">
          <mxGeometry x="2060" y="-772.5" width="190" height="10" as="geometry" />
        </mxCell>
        <mxCell id="y0Fj-1lW7r01eOwDqa-p-35" value="" style="line;strokeWidth=2;html=1;" parent="1" vertex="1">
          <mxGeometry x="2060" y="-342.5" width="190" height="10" as="geometry" />
        </mxCell>
        <mxCell id="y0Fj-1lW7r01eOwDqa-p-36" value="Aplikacja mobilna" style="rounded=1;whiteSpace=wrap;html=1;fontSize=16;" parent="1" vertex="1">
          <mxGeometry x="2060" y="-322.5" width="190" height="40" as="geometry" />
        </mxCell>
        <mxCell id="y0Fj-1lW7r01eOwDqa-p-37" value="Preferencje" style="rounded=1;whiteSpace=wrap;html=1;fontSize=16;" parent="1" vertex="1">
          <mxGeometry x="2060" y="-140" width="190" height="40" as="geometry" />
        </mxCell>
        <mxCell id="y0Fj-1lW7r01eOwDqa-p-38" value="Język" style="rounded=1;whiteSpace=wrap;html=1;fontSize=16;" parent="1" vertex="1">
          <mxGeometry x="2060" y="-262.5" width="190" height="40" as="geometry" />
        </mxCell>
        <mxCell id="y0Fj-1lW7r01eOwDqa-p-39" value="Platności" style="rounded=1;whiteSpace=wrap;html=1;fontSize=16;" parent="1" vertex="1">
          <mxGeometry x="2060" y="-200" width="190" height="40" as="geometry" />
        </mxCell>
        <mxCell id="y0Fj-1lW7r01eOwDqa-p-40" value="&lt;h1 style=&quot;margin-top: 0px;&quot;&gt;Schedule&lt;/h1&gt;&lt;div&gt;Страница на которой будет размещено само расписание пар&amp;nbsp;&lt;/div&gt;&lt;div&gt;&lt;br&gt;&lt;/div&gt;&lt;div&gt;Будет кнопка для переключения между расписание пар и расписание карткувок, колосов экзаменов и им подобным&lt;br&gt;&lt;span style=&quot;background-color: initial;&quot;&gt;&lt;br&gt;Также будет возможность посмотреть сразу какие дни ректорские а какие нет, так как в день когда пары и какое-то мероприятие - оно будет видно в виде таблички&amp;nbsp;&lt;/span&gt;&lt;/div&gt;" style="text;html=1;whiteSpace=wrap;overflow=hidden;rounded=0;" parent="1" vertex="1">
          <mxGeometry x="2060" y="-1250" width="510" height="170" as="geometry" />
        </mxCell>
        <mxCell id="y0Fj-1lW7r01eOwDqa-p-41" value="" style="rounded=1;whiteSpace=wrap;html=1;fillColor=#d5e8d4;strokeColor=#82b366;" parent="1" vertex="1">
          <mxGeometry x="2615" y="-1165" width="120" height="60" as="geometry" />
        </mxCell>
        <mxCell id="y0Fj-1lW7r01eOwDqa-p-42" style="edgeStyle=orthogonalEdgeStyle;rounded=0;orthogonalLoop=1;jettySize=auto;html=1;exitX=0;exitY=0.5;exitDx=0;exitDy=0;entryX=1;entryY=0.5;entryDx=0;entryDy=0;" parent="1" source="y0Fj-1lW7r01eOwDqa-p-43" target="y0Fj-1lW7r01eOwDqa-p-41" edge="1">
          <mxGeometry relative="1" as="geometry" />
        </mxCell>
        <mxCell id="y0Fj-1lW7r01eOwDqa-p-43" value="&amp;nbsp;какая сейчас часть страницы дизайнится" style="text;html=1;align=center;verticalAlign=middle;whiteSpace=wrap;rounded=0;fontSize=17;" parent="1" vertex="1">
          <mxGeometry x="2785" y="-1152.5" width="240" height="35" as="geometry" />
        </mxCell>
        <mxCell id="CJZUKBydPEXCnxmFolZl-1" value="" style="rounded=0;whiteSpace=wrap;html=1;" parent="1" vertex="1">
          <mxGeometry x="2295" y="-950" width="1280" height="900" as="geometry" />
        </mxCell>
        <mxCell id="CJZUKBydPEXCnxmFolZl-11" value="" style="group" parent="1" vertex="1" connectable="0">
          <mxGeometry x="2790" y="-950" width="290" height="60" as="geometry" />
        </mxCell>
        <mxCell id="CJZUKBydPEXCnxmFolZl-2" value="27.05.2024 - 02.06.2024" style="rounded=1;whiteSpace=wrap;html=1;strokeWidth=1;fontSize=16;" parent="CJZUKBydPEXCnxmFolZl-11" vertex="1">
          <mxGeometry width="290" height="60" as="geometry" />
        </mxCell>
        <mxCell id="CJZUKBydPEXCnxmFolZl-4" value="" style="triangle;whiteSpace=wrap;html=1;fillColor=#080808;" parent="CJZUKBydPEXCnxmFolZl-11" vertex="1">
          <mxGeometry x="250" y="22.5" width="20" height="15" as="geometry" />
        </mxCell>
        <mxCell id="CJZUKBydPEXCnxmFolZl-6" value="" style="triangle;whiteSpace=wrap;html=1;fillColor=#080808;rotation=-180;" parent="CJZUKBydPEXCnxmFolZl-11" vertex="1">
          <mxGeometry x="20" y="22.5" width="20" height="15" as="geometry" />
        </mxCell>
        <mxCell id="CJZUKBydPEXCnxmFolZl-18" value="" style="rounded=1;whiteSpace=wrap;html=1;strokeWidth=1;fontSize=16;" parent="1" vertex="1">
          <mxGeometry x="2350" y="-950" width="290" height="60" as="geometry" />
        </mxCell>
        <mxCell id="CJZUKBydPEXCnxmFolZl-19" value="" style="group" parent="1" vertex="1" connectable="0">
          <mxGeometry x="3230" y="-950" width="290" height="60" as="geometry" />
        </mxCell>
        <mxCell id="CJZUKBydPEXCnxmFolZl-10" value="" style="rounded=1;whiteSpace=wrap;html=1;strokeWidth=1;fontSize=16;" parent="CJZUKBydPEXCnxmFolZl-19" vertex="1">
          <mxGeometry width="290" height="60" as="geometry" />
        </mxCell>
        <mxCell id="CJZUKBydPEXCnxmFolZl-12" value="Weekly" style="text;html=1;align=center;verticalAlign=middle;whiteSpace=wrap;rounded=0;fontSize=19;" parent="CJZUKBydPEXCnxmFolZl-19" vertex="1">
          <mxGeometry x="10" y="17.5" width="70" height="25" as="geometry" />
        </mxCell>
        <mxCell id="CJZUKBydPEXCnxmFolZl-13" value="" style="ellipse;whiteSpace=wrap;html=1;aspect=fixed;" parent="CJZUKBydPEXCnxmFolZl-19" vertex="1">
          <mxGeometry x="90" y="22.5" width="15" height="15" as="geometry" />
        </mxCell>
        <mxCell id="CJZUKBydPEXCnxmFolZl-16" value="Semester" style="text;html=1;align=center;verticalAlign=middle;whiteSpace=wrap;rounded=0;fontSize=19;" parent="CJZUKBydPEXCnxmFolZl-19" vertex="1">
          <mxGeometry x="160" y="17.5" width="90" height="25" as="geometry" />
        </mxCell>
        <mxCell id="CJZUKBydPEXCnxmFolZl-17" value="" style="ellipse;whiteSpace=wrap;html=1;aspect=fixed;" parent="CJZUKBydPEXCnxmFolZl-19" vertex="1">
          <mxGeometry x="260" y="22.5" width="15" height="15" as="geometry" />
        </mxCell>
        <mxCell id="CJZUKBydPEXCnxmFolZl-154" value="" style="ellipse;whiteSpace=wrap;html=1;aspect=fixed;fillColor=#121212;" parent="CJZUKBydPEXCnxmFolZl-19" vertex="1">
          <mxGeometry x="93.75" y="26.25" width="7.5" height="7.5" as="geometry" />
        </mxCell>
        <mxCell id="CJZUKBydPEXCnxmFolZl-155" value="" style="ellipse;whiteSpace=wrap;html=1;aspect=fixed;" parent="CJZUKBydPEXCnxmFolZl-19" vertex="1">
          <mxGeometry x="263.75" y="26.25" width="7.5" height="7.5" as="geometry" />
        </mxCell>
        <mxCell id="CJZUKBydPEXCnxmFolZl-21" value="Casual" style="text;html=1;align=center;verticalAlign=middle;whiteSpace=wrap;rounded=0;fontSize=19;" parent="1" vertex="1">
          <mxGeometry x="2358" y="-932.5" width="70" height="25" as="geometry" />
        </mxCell>
        <mxCell id="CJZUKBydPEXCnxmFolZl-22" value="" style="ellipse;whiteSpace=wrap;html=1;aspect=fixed;" parent="1" vertex="1">
          <mxGeometry x="2436" y="-927.5" width="15" height="15" as="geometry" />
        </mxCell>
        <mxCell id="CJZUKBydPEXCnxmFolZl-24" value="Events" style="text;html=1;align=center;verticalAlign=middle;whiteSpace=wrap;rounded=0;fontSize=19;" parent="1" vertex="1">
          <mxGeometry x="2533" y="-932.5" width="70" height="25" as="geometry" />
        </mxCell>
        <mxCell id="CJZUKBydPEXCnxmFolZl-25" value="" style="ellipse;whiteSpace=wrap;html=1;aspect=fixed;" parent="1" vertex="1">
          <mxGeometry x="2610" y="-927.5" width="15" height="15" as="geometry" />
        </mxCell>
        <mxCell id="CJZUKBydPEXCnxmFolZl-27" value="" style="rounded=0;whiteSpace=wrap;html=1;" parent="1" vertex="1">
          <mxGeometry x="2330" y="-860" width="1209" height="780" as="geometry" />
        </mxCell>
        <mxCell id="CJZUKBydPEXCnxmFolZl-28" value="" style="endArrow=none;html=1;rounded=0;exitX=0;exitY=0.061;exitDx=0;exitDy=0;exitPerimeter=0;entryX=1;entryY=0.061;entryDx=0;entryDy=0;entryPerimeter=0;" parent="1" edge="1">
          <mxGeometry width="50" height="50" relative="1" as="geometry">
            <mxPoint x="2330" y="-810.2299999999999" as="sourcePoint" />
            <mxPoint x="3539" y="-810.2299999999999" as="targetPoint" />
          </mxGeometry>
        </mxCell>
        <mxCell id="CJZUKBydPEXCnxmFolZl-30" value="" style="line;strokeWidth=4;direction=south;html=1;perimeter=backbonePerimeter;points=[];outlineConnect=0;" parent="1" vertex="1">
          <mxGeometry x="2570" y="-860" width="10" height="50" as="geometry" />
        </mxCell>
        <mxCell id="CJZUKBydPEXCnxmFolZl-31" value="" style="line;strokeWidth=4;direction=south;html=1;perimeter=backbonePerimeter;points=[];outlineConnect=0;" parent="1" vertex="1">
          <mxGeometry x="2816" y="-860" width="10" height="50" as="geometry" />
        </mxCell>
        <mxCell id="CJZUKBydPEXCnxmFolZl-33" value="" style="line;strokeWidth=4;direction=south;html=1;perimeter=backbonePerimeter;points=[];outlineConnect=0;" parent="1" vertex="1">
          <mxGeometry x="3062" y="-860" width="10" height="50" as="geometry" />
        </mxCell>
        <mxCell id="CJZUKBydPEXCnxmFolZl-34" value="" style="line;strokeWidth=4;direction=south;html=1;perimeter=backbonePerimeter;points=[];outlineConnect=0;" parent="1" vertex="1">
          <mxGeometry x="3307" y="-860" width="10" height="50" as="geometry" />
        </mxCell>
        <mxCell id="CJZUKBydPEXCnxmFolZl-36" value="" style="line;strokeWidth=4;direction=south;html=1;perimeter=backbonePerimeter;points=[];outlineConnect=0;" parent="1" vertex="1">
          <mxGeometry x="2570" y="-810" width="10" height="730" as="geometry" />
        </mxCell>
        <mxCell id="CJZUKBydPEXCnxmFolZl-37" value="" style="line;strokeWidth=4;direction=south;html=1;perimeter=backbonePerimeter;points=[];outlineConnect=0;" parent="1" vertex="1">
          <mxGeometry x="2816" y="-810" width="10" height="730" as="geometry" />
        </mxCell>
        <mxCell id="CJZUKBydPEXCnxmFolZl-38" value="" style="line;strokeWidth=4;direction=south;html=1;perimeter=backbonePerimeter;points=[];outlineConnect=0;" parent="1" vertex="1">
          <mxGeometry x="3062" y="-810" width="10" height="730" as="geometry" />
        </mxCell>
        <mxCell id="CJZUKBydPEXCnxmFolZl-39" value="" style="line;strokeWidth=4;direction=south;html=1;perimeter=backbonePerimeter;points=[];outlineConnect=0;" parent="1" vertex="1">
          <mxGeometry x="3307" y="-810" width="10" height="730" as="geometry" />
        </mxCell>
        <mxCell id="CJZUKBydPEXCnxmFolZl-40" value="&lt;font style=&quot;font-size: 20px;&quot;&gt;Monday&lt;/font&gt;" style="text;html=1;align=center;verticalAlign=middle;whiteSpace=wrap;rounded=0;" parent="1" vertex="1">
          <mxGeometry x="2378.5" y="-850" width="130" height="30" as="geometry" />
        </mxCell>
        <mxCell id="CJZUKBydPEXCnxmFolZl-41" value="&lt;font style=&quot;font-size: 20px;&quot;&gt;Tuesday&lt;/font&gt;" style="text;html=1;align=center;verticalAlign=middle;whiteSpace=wrap;rounded=0;" parent="1" vertex="1">
          <mxGeometry x="2630" y="-850" width="130" height="30" as="geometry" />
        </mxCell>
        <mxCell id="CJZUKBydPEXCnxmFolZl-42" value="&lt;font style=&quot;font-size: 20px;&quot;&gt;Wednesday&lt;/font&gt;" style="text;html=1;align=center;verticalAlign=middle;whiteSpace=wrap;rounded=0;" parent="1" vertex="1">
          <mxGeometry x="2880" y="-850" width="130" height="30" as="geometry" />
        </mxCell>
        <mxCell id="CJZUKBydPEXCnxmFolZl-43" value="&lt;font style=&quot;font-size: 20px;&quot;&gt;Thursday&lt;/font&gt;" style="text;html=1;align=center;verticalAlign=middle;whiteSpace=wrap;rounded=0;" parent="1" vertex="1">
          <mxGeometry x="3120" y="-850" width="130" height="30" as="geometry" />
        </mxCell>
        <mxCell id="CJZUKBydPEXCnxmFolZl-45" value="&lt;font style=&quot;font-size: 20px;&quot;&gt;Friday&lt;/font&gt;" style="text;html=1;align=center;verticalAlign=middle;whiteSpace=wrap;rounded=0;" parent="1" vertex="1">
          <mxGeometry x="3360" y="-850" width="130" height="30" as="geometry" />
        </mxCell>
        <mxCell id="CJZUKBydPEXCnxmFolZl-52" value="" style="group" parent="1" vertex="1" connectable="0">
          <mxGeometry x="2341" y="-782.5" width="222" height="108" as="geometry" />
        </mxCell>
        <mxCell id="CJZUKBydPEXCnxmFolZl-46" value="" style="rounded=1;whiteSpace=wrap;html=1;" parent="CJZUKBydPEXCnxmFolZl-52" vertex="1">
          <mxGeometry width="222" height="108" as="geometry" />
        </mxCell>
        <mxCell id="CJZUKBydPEXCnxmFolZl-48" value="Nazwa przedmiotu" style="text;html=1;align=center;verticalAlign=middle;whiteSpace=wrap;rounded=1;strokeColor=default;" parent="CJZUKBydPEXCnxmFolZl-52" vertex="1">
          <mxGeometry x="45.5" width="131" height="30" as="geometry" />
        </mxCell>
        <mxCell id="CJZUKBydPEXCnxmFolZl-49" value="Numer Grupy, Audytoria" style="text;html=1;align=center;verticalAlign=middle;whiteSpace=wrap;rounded=0;" parent="CJZUKBydPEXCnxmFolZl-52" vertex="1">
          <mxGeometry y="35" width="149" height="30" as="geometry" />
        </mxCell>
        <mxCell id="CJZUKBydPEXCnxmFolZl-51" value="9:15 - 10:05" style="text;html=1;align=center;verticalAlign=middle;whiteSpace=wrap;rounded=0;" parent="CJZUKBydPEXCnxmFolZl-52" vertex="1">
          <mxGeometry x="9" y="70" width="70" height="30" as="geometry" />
        </mxCell>
        <mxCell id="CJZUKBydPEXCnxmFolZl-53" value="" style="group" parent="1" vertex="1" connectable="0">
          <mxGeometry x="2340" y="-652.5" width="222" height="108" as="geometry" />
        </mxCell>
        <mxCell id="CJZUKBydPEXCnxmFolZl-54" value="" style="rounded=1;whiteSpace=wrap;html=1;" parent="CJZUKBydPEXCnxmFolZl-53" vertex="1">
          <mxGeometry width="222" height="108" as="geometry" />
        </mxCell>
        <mxCell id="CJZUKBydPEXCnxmFolZl-55" value="Nazwa przedmiotu" style="text;html=1;align=center;verticalAlign=middle;whiteSpace=wrap;rounded=1;strokeColor=default;" parent="CJZUKBydPEXCnxmFolZl-53" vertex="1">
          <mxGeometry x="45.5" width="131" height="30" as="geometry" />
        </mxCell>
        <mxCell id="CJZUKBydPEXCnxmFolZl-56" value="Numer Grupy, Audytoria" style="text;html=1;align=center;verticalAlign=middle;whiteSpace=wrap;rounded=0;" parent="CJZUKBydPEXCnxmFolZl-53" vertex="1">
          <mxGeometry y="35" width="149" height="30" as="geometry" />
        </mxCell>
        <mxCell id="CJZUKBydPEXCnxmFolZl-57" value="9:15 - 10:05" style="text;html=1;align=center;verticalAlign=middle;whiteSpace=wrap;rounded=0;" parent="CJZUKBydPEXCnxmFolZl-53" vertex="1">
          <mxGeometry x="9" y="70" width="70" height="30" as="geometry" />
        </mxCell>
        <mxCell id="CJZUKBydPEXCnxmFolZl-64" value="" style="group" parent="1" vertex="1" connectable="0">
          <mxGeometry x="2341" y="-523" width="222" height="108" as="geometry" />
        </mxCell>
        <mxCell id="CJZUKBydPEXCnxmFolZl-65" value="" style="rounded=1;whiteSpace=wrap;html=1;" parent="CJZUKBydPEXCnxmFolZl-64" vertex="1">
          <mxGeometry width="222" height="108" as="geometry" />
        </mxCell>
        <mxCell id="CJZUKBydPEXCnxmFolZl-66" value="Nazwa przedmiotu" style="text;html=1;align=center;verticalAlign=middle;whiteSpace=wrap;rounded=1;strokeColor=default;" parent="CJZUKBydPEXCnxmFolZl-64" vertex="1">
          <mxGeometry x="45.5" width="131" height="30" as="geometry" />
        </mxCell>
        <mxCell id="CJZUKBydPEXCnxmFolZl-67" value="Numer Grupy, Audytoria" style="text;html=1;align=center;verticalAlign=middle;whiteSpace=wrap;rounded=0;" parent="CJZUKBydPEXCnxmFolZl-64" vertex="1">
          <mxGeometry y="35" width="149" height="30" as="geometry" />
        </mxCell>
        <mxCell id="CJZUKBydPEXCnxmFolZl-68" value="9:15 - 10:05" style="text;html=1;align=center;verticalAlign=middle;whiteSpace=wrap;rounded=0;" parent="CJZUKBydPEXCnxmFolZl-64" vertex="1">
          <mxGeometry x="9" y="70" width="70" height="30" as="geometry" />
        </mxCell>
        <mxCell id="CJZUKBydPEXCnxmFolZl-69" value="" style="group" parent="1" vertex="1" connectable="0">
          <mxGeometry x="2340" y="-394" width="222" height="108" as="geometry" />
        </mxCell>
        <mxCell id="CJZUKBydPEXCnxmFolZl-70" value="" style="rounded=1;whiteSpace=wrap;html=1;" parent="CJZUKBydPEXCnxmFolZl-69" vertex="1">
          <mxGeometry width="222" height="108" as="geometry" />
        </mxCell>
        <mxCell id="CJZUKBydPEXCnxmFolZl-71" value="Nazwa przedmiotu" style="text;html=1;align=center;verticalAlign=middle;whiteSpace=wrap;rounded=1;strokeColor=default;" parent="CJZUKBydPEXCnxmFolZl-69" vertex="1">
          <mxGeometry x="45.5" width="131" height="30" as="geometry" />
        </mxCell>
        <mxCell id="CJZUKBydPEXCnxmFolZl-72" value="Numer Grupy, Audytoria" style="text;html=1;align=center;verticalAlign=middle;whiteSpace=wrap;rounded=0;" parent="CJZUKBydPEXCnxmFolZl-69" vertex="1">
          <mxGeometry y="35" width="149" height="30" as="geometry" />
        </mxCell>
        <mxCell id="CJZUKBydPEXCnxmFolZl-73" value="9:15 - 10:05" style="text;html=1;align=center;verticalAlign=middle;whiteSpace=wrap;rounded=0;" parent="CJZUKBydPEXCnxmFolZl-69" vertex="1">
          <mxGeometry x="9" y="70" width="70" height="30" as="geometry" />
        </mxCell>
        <mxCell id="CJZUKBydPEXCnxmFolZl-74" value="" style="group" parent="1" vertex="1" connectable="0">
          <mxGeometry x="2340" y="-267" width="222" height="108" as="geometry" />
        </mxCell>
        <mxCell id="CJZUKBydPEXCnxmFolZl-75" value="" style="rounded=1;whiteSpace=wrap;html=1;" parent="CJZUKBydPEXCnxmFolZl-74" vertex="1">
          <mxGeometry width="222" height="108" as="geometry" />
        </mxCell>
        <mxCell id="CJZUKBydPEXCnxmFolZl-76" value="Nazwa przedmiotu" style="text;html=1;align=center;verticalAlign=middle;whiteSpace=wrap;rounded=1;strokeColor=default;" parent="CJZUKBydPEXCnxmFolZl-74" vertex="1">
          <mxGeometry x="45.5" width="131" height="30" as="geometry" />
        </mxCell>
        <mxCell id="CJZUKBydPEXCnxmFolZl-77" value="Numer Grupy, Audytoria" style="text;html=1;align=center;verticalAlign=middle;whiteSpace=wrap;rounded=0;" parent="CJZUKBydPEXCnxmFolZl-74" vertex="1">
          <mxGeometry y="35" width="149" height="30" as="geometry" />
        </mxCell>
        <mxCell id="CJZUKBydPEXCnxmFolZl-78" value="9:15 - 10:05" style="text;html=1;align=center;verticalAlign=middle;whiteSpace=wrap;rounded=0;" parent="CJZUKBydPEXCnxmFolZl-74" vertex="1">
          <mxGeometry x="9" y="70" width="70" height="30" as="geometry" />
        </mxCell>
        <mxCell id="CJZUKBydPEXCnxmFolZl-79" value="" style="rounded=0;whiteSpace=wrap;html=1;fillColor=default;fillStyle=auto;" parent="1" vertex="1">
          <mxGeometry x="3920" y="-970" width="1580" height="940" as="geometry" />
        </mxCell>
        <mxCell id="CJZUKBydPEXCnxmFolZl-80" value="" style="rounded=1;whiteSpace=wrap;html=1;fillColor=#BFBFBF;fontColor=#333333;strokeColor=#666666;movable=1;resizable=1;rotatable=1;deletable=1;editable=1;locked=0;connectable=1;" parent="1" vertex="1">
          <mxGeometry x="3940" y="-952.5" width="210" height="900" as="geometry" />
        </mxCell>
        <mxCell id="CJZUKBydPEXCnxmFolZl-81" value="&lt;font style=&quot;font-size: 32px;&quot;&gt;Learny&lt;/font&gt;" style="rounded=1;whiteSpace=wrap;html=1;fillColor=#0A0A0A;fontColor=#FCFCFC;fontSize=16;movable=1;resizable=1;rotatable=1;deletable=1;editable=1;locked=0;connectable=1;" parent="1" vertex="1">
          <mxGeometry x="3950" y="-902.5" width="190" height="60" as="geometry" />
        </mxCell>
        <mxCell id="CJZUKBydPEXCnxmFolZl-82" value="Main Page" style="rounded=1;whiteSpace=wrap;html=1;fontSize=16;" parent="1" vertex="1">
          <mxGeometry x="3950" y="-752.5" width="190" height="40" as="geometry" />
        </mxCell>
        <mxCell id="CJZUKBydPEXCnxmFolZl-83" value="Schedule" style="rounded=1;whiteSpace=wrap;html=1;fontSize=16;fillColor=#d5e8d4;strokeColor=#82b366;" parent="1" vertex="1">
          <mxGeometry x="3950" y="-692.5" width="190" height="40" as="geometry" />
        </mxCell>
        <mxCell id="CJZUKBydPEXCnxmFolZl-84" value="Courses" style="rounded=1;whiteSpace=wrap;html=1;fontSize=16;" parent="1" vertex="1">
          <mxGeometry x="3950" y="-632.5" width="190" height="40" as="geometry" />
        </mxCell>
        <mxCell id="CJZUKBydPEXCnxmFolZl-85" value="Sprawdziany" style="rounded=1;whiteSpace=wrap;html=1;fontSize=16;" parent="1" vertex="1">
          <mxGeometry x="3950" y="-572.5" width="190" height="40" as="geometry" />
        </mxCell>
        <mxCell id="CJZUKBydPEXCnxmFolZl-86" value="Oceny końcowe" style="rounded=1;whiteSpace=wrap;html=1;fontSize=16;" parent="1" vertex="1">
          <mxGeometry x="3950" y="-512.5" width="190" height="40" as="geometry" />
        </mxCell>
        <mxCell id="CJZUKBydPEXCnxmFolZl-87" value="Zaliczenie etapów" style="rounded=1;whiteSpace=wrap;html=1;fontSize=16;" parent="1" vertex="1">
          <mxGeometry x="3950" y="-452.5" width="190" height="40" as="geometry" />
        </mxCell>
        <mxCell id="CJZUKBydPEXCnxmFolZl-88" value="Decyzje" style="rounded=1;whiteSpace=wrap;html=1;fontSize=16;" parent="1" vertex="1">
          <mxGeometry x="3950" y="-392.5" width="190" height="40" as="geometry" />
        </mxCell>
        <mxCell id="CJZUKBydPEXCnxmFolZl-89" value="Profil" style="rounded=1;whiteSpace=wrap;html=1;fontSize=16;" parent="1" vertex="1">
          <mxGeometry x="3950" y="-822.5" width="190" height="40" as="geometry" />
        </mxCell>
        <mxCell id="CJZUKBydPEXCnxmFolZl-90" value="" style="line;strokeWidth=2;html=1;" parent="1" vertex="1">
          <mxGeometry x="3950" y="-772.5" width="190" height="10" as="geometry" />
        </mxCell>
        <mxCell id="CJZUKBydPEXCnxmFolZl-91" value="" style="line;strokeWidth=2;html=1;" parent="1" vertex="1">
          <mxGeometry x="3950" y="-342.5" width="190" height="10" as="geometry" />
        </mxCell>
        <mxCell id="CJZUKBydPEXCnxmFolZl-92" value="Aplikacja mobilna" style="rounded=1;whiteSpace=wrap;html=1;fontSize=16;" parent="1" vertex="1">
          <mxGeometry x="3950" y="-322.5" width="190" height="40" as="geometry" />
        </mxCell>
        <mxCell id="CJZUKBydPEXCnxmFolZl-93" value="Preferencje" style="rounded=1;whiteSpace=wrap;html=1;fontSize=16;" parent="1" vertex="1">
          <mxGeometry x="3950" y="-140" width="190" height="40" as="geometry" />
        </mxCell>
        <mxCell id="CJZUKBydPEXCnxmFolZl-94" value="Język" style="rounded=1;whiteSpace=wrap;html=1;fontSize=16;" parent="1" vertex="1">
          <mxGeometry x="3950" y="-262.5" width="190" height="40" as="geometry" />
        </mxCell>
        <mxCell id="CJZUKBydPEXCnxmFolZl-95" value="Platności" style="rounded=1;whiteSpace=wrap;html=1;fontSize=16;" parent="1" vertex="1">
          <mxGeometry x="3950" y="-200" width="190" height="40" as="geometry" />
        </mxCell>
        <mxCell id="CJZUKBydPEXCnxmFolZl-96" value="" style="rounded=0;whiteSpace=wrap;html=1;" parent="1" vertex="1">
          <mxGeometry x="4185" y="-950" width="1280" height="900" as="geometry" />
        </mxCell>
        <mxCell id="CJZUKBydPEXCnxmFolZl-97" value="" style="group" parent="1" vertex="1" connectable="0">
          <mxGeometry x="4680" y="-950" width="290" height="60" as="geometry" />
        </mxCell>
        <mxCell id="CJZUKBydPEXCnxmFolZl-98" value="27.05.2024 - 02.06.2024" style="rounded=1;whiteSpace=wrap;html=1;strokeWidth=1;fontSize=16;" parent="CJZUKBydPEXCnxmFolZl-97" vertex="1">
          <mxGeometry width="290" height="60" as="geometry" />
        </mxCell>
        <mxCell id="CJZUKBydPEXCnxmFolZl-99" value="" style="triangle;whiteSpace=wrap;html=1;fillColor=#080808;" parent="CJZUKBydPEXCnxmFolZl-97" vertex="1">
          <mxGeometry x="250" y="22.5" width="20" height="15" as="geometry" />
        </mxCell>
        <mxCell id="CJZUKBydPEXCnxmFolZl-100" value="" style="triangle;whiteSpace=wrap;html=1;fillColor=#080808;rotation=-180;" parent="CJZUKBydPEXCnxmFolZl-97" vertex="1">
          <mxGeometry x="20" y="22.5" width="20" height="15" as="geometry" />
        </mxCell>
        <mxCell id="CJZUKBydPEXCnxmFolZl-101" value="" style="rounded=1;whiteSpace=wrap;html=1;strokeWidth=1;fontSize=16;" parent="1" vertex="1">
          <mxGeometry x="4240" y="-950" width="290" height="60" as="geometry" />
        </mxCell>
        <mxCell id="CJZUKBydPEXCnxmFolZl-102" value="" style="group" parent="1" vertex="1" connectable="0">
          <mxGeometry x="5120" y="-950" width="290" height="60" as="geometry" />
        </mxCell>
        <mxCell id="CJZUKBydPEXCnxmFolZl-103" value="" style="rounded=1;whiteSpace=wrap;html=1;strokeWidth=1;fontSize=16;" parent="CJZUKBydPEXCnxmFolZl-102" vertex="1">
          <mxGeometry width="290" height="60" as="geometry" />
        </mxCell>
        <mxCell id="CJZUKBydPEXCnxmFolZl-104" value="Weekly" style="text;html=1;align=center;verticalAlign=middle;whiteSpace=wrap;rounded=0;fontSize=19;" parent="CJZUKBydPEXCnxmFolZl-102" vertex="1">
          <mxGeometry x="10" y="17.5" width="70" height="25" as="geometry" />
        </mxCell>
        <mxCell id="CJZUKBydPEXCnxmFolZl-105" value="" style="ellipse;whiteSpace=wrap;html=1;aspect=fixed;" parent="CJZUKBydPEXCnxmFolZl-102" vertex="1">
          <mxGeometry x="90" y="22.5" width="15" height="15" as="geometry" />
        </mxCell>
        <mxCell id="CJZUKBydPEXCnxmFolZl-106" value="Semester" style="text;html=1;align=center;verticalAlign=middle;whiteSpace=wrap;rounded=0;fontSize=19;" parent="CJZUKBydPEXCnxmFolZl-102" vertex="1">
          <mxGeometry x="160" y="17.5" width="90" height="25" as="geometry" />
        </mxCell>
        <mxCell id="CJZUKBydPEXCnxmFolZl-107" value="" style="ellipse;whiteSpace=wrap;html=1;aspect=fixed;" parent="CJZUKBydPEXCnxmFolZl-102" vertex="1">
          <mxGeometry x="260" y="22.5" width="15" height="15" as="geometry" />
        </mxCell>
        <mxCell id="CJZUKBydPEXCnxmFolZl-158" value="" style="ellipse;whiteSpace=wrap;html=1;aspect=fixed;fillColor=#000000;" parent="CJZUKBydPEXCnxmFolZl-102" vertex="1">
          <mxGeometry x="93.75" y="26.25" width="7.5" height="7.5" as="geometry" />
        </mxCell>
        <mxCell id="CJZUKBydPEXCnxmFolZl-159" value="" style="ellipse;whiteSpace=wrap;html=1;aspect=fixed;" parent="CJZUKBydPEXCnxmFolZl-102" vertex="1">
          <mxGeometry x="263.75" y="26.25" width="7.5" height="7.5" as="geometry" />
        </mxCell>
        <mxCell id="CJZUKBydPEXCnxmFolZl-108" value="Casual" style="text;html=1;align=center;verticalAlign=middle;whiteSpace=wrap;rounded=0;fontSize=19;" parent="1" vertex="1">
          <mxGeometry x="4248" y="-932.5" width="70" height="25" as="geometry" />
        </mxCell>
        <mxCell id="CJZUKBydPEXCnxmFolZl-109" value="" style="ellipse;whiteSpace=wrap;html=1;aspect=fixed;" parent="1" vertex="1">
          <mxGeometry x="4326" y="-927.5" width="15" height="15" as="geometry" />
        </mxCell>
        <mxCell id="CJZUKBydPEXCnxmFolZl-110" value="Events" style="text;html=1;align=center;verticalAlign=middle;whiteSpace=wrap;rounded=0;fontSize=19;" parent="1" vertex="1">
          <mxGeometry x="4423" y="-932.5" width="70" height="25" as="geometry" />
        </mxCell>
        <mxCell id="CJZUKBydPEXCnxmFolZl-111" value="" style="ellipse;whiteSpace=wrap;html=1;aspect=fixed;" parent="1" vertex="1">
          <mxGeometry x="4500" y="-927.5" width="15" height="15" as="geometry" />
        </mxCell>
        <mxCell id="CJZUKBydPEXCnxmFolZl-112" value="" style="rounded=0;whiteSpace=wrap;html=1;" parent="1" vertex="1">
          <mxGeometry x="4220" y="-860" width="1209" height="780" as="geometry" />
        </mxCell>
        <mxCell id="CJZUKBydPEXCnxmFolZl-113" value="" style="endArrow=none;html=1;rounded=0;exitX=0;exitY=0.061;exitDx=0;exitDy=0;exitPerimeter=0;entryX=1;entryY=0.061;entryDx=0;entryDy=0;entryPerimeter=0;" parent="1" edge="1">
          <mxGeometry width="50" height="50" relative="1" as="geometry">
            <mxPoint x="4220" y="-810.2299999999999" as="sourcePoint" />
            <mxPoint x="5429" y="-810.2299999999999" as="targetPoint" />
          </mxGeometry>
        </mxCell>
        <mxCell id="CJZUKBydPEXCnxmFolZl-114" value="" style="line;strokeWidth=4;direction=south;html=1;perimeter=backbonePerimeter;points=[];outlineConnect=0;" parent="1" vertex="1">
          <mxGeometry x="4460" y="-860" width="10" height="50" as="geometry" />
        </mxCell>
        <mxCell id="CJZUKBydPEXCnxmFolZl-115" value="" style="line;strokeWidth=4;direction=south;html=1;perimeter=backbonePerimeter;points=[];outlineConnect=0;" parent="1" vertex="1">
          <mxGeometry x="4706" y="-860" width="10" height="50" as="geometry" />
        </mxCell>
        <mxCell id="CJZUKBydPEXCnxmFolZl-116" value="" style="line;strokeWidth=4;direction=south;html=1;perimeter=backbonePerimeter;points=[];outlineConnect=0;" parent="1" vertex="1">
          <mxGeometry x="4952" y="-860" width="10" height="50" as="geometry" />
        </mxCell>
        <mxCell id="CJZUKBydPEXCnxmFolZl-117" value="" style="line;strokeWidth=4;direction=south;html=1;perimeter=backbonePerimeter;points=[];outlineConnect=0;" parent="1" vertex="1">
          <mxGeometry x="5197" y="-860" width="10" height="50" as="geometry" />
        </mxCell>
        <mxCell id="CJZUKBydPEXCnxmFolZl-118" value="" style="line;strokeWidth=4;direction=south;html=1;perimeter=backbonePerimeter;points=[];outlineConnect=0;" parent="1" vertex="1">
          <mxGeometry x="4460" y="-810" width="10" height="730" as="geometry" />
        </mxCell>
        <mxCell id="CJZUKBydPEXCnxmFolZl-119" value="" style="line;strokeWidth=4;direction=south;html=1;perimeter=backbonePerimeter;points=[];outlineConnect=0;" parent="1" vertex="1">
          <mxGeometry x="4706" y="-810" width="10" height="730" as="geometry" />
        </mxCell>
        <mxCell id="CJZUKBydPEXCnxmFolZl-120" value="" style="line;strokeWidth=4;direction=south;html=1;perimeter=backbonePerimeter;points=[];outlineConnect=0;" parent="1" vertex="1">
          <mxGeometry x="4952" y="-810" width="10" height="730" as="geometry" />
        </mxCell>
        <mxCell id="CJZUKBydPEXCnxmFolZl-121" value="" style="line;strokeWidth=4;direction=south;html=1;perimeter=backbonePerimeter;points=[];outlineConnect=0;" parent="1" vertex="1">
          <mxGeometry x="5197" y="-810" width="10" height="730" as="geometry" />
        </mxCell>
        <mxCell id="CJZUKBydPEXCnxmFolZl-122" value="&lt;font style=&quot;font-size: 20px;&quot;&gt;Monday&lt;/font&gt;" style="text;html=1;align=center;verticalAlign=middle;whiteSpace=wrap;rounded=0;" parent="1" vertex="1">
          <mxGeometry x="4268.5" y="-850" width="130" height="30" as="geometry" />
        </mxCell>
        <mxCell id="CJZUKBydPEXCnxmFolZl-123" value="&lt;font style=&quot;font-size: 20px;&quot;&gt;Tuesday&lt;/font&gt;" style="text;html=1;align=center;verticalAlign=middle;whiteSpace=wrap;rounded=0;" parent="1" vertex="1">
          <mxGeometry x="4520" y="-850" width="130" height="30" as="geometry" />
        </mxCell>
        <mxCell id="CJZUKBydPEXCnxmFolZl-124" value="&lt;font style=&quot;font-size: 20px;&quot;&gt;Wednesday&lt;/font&gt;" style="text;html=1;align=center;verticalAlign=middle;whiteSpace=wrap;rounded=0;" parent="1" vertex="1">
          <mxGeometry x="4770" y="-850" width="130" height="30" as="geometry" />
        </mxCell>
        <mxCell id="CJZUKBydPEXCnxmFolZl-125" value="&lt;font style=&quot;font-size: 20px;&quot;&gt;Thursday&lt;/font&gt;" style="text;html=1;align=center;verticalAlign=middle;whiteSpace=wrap;rounded=0;" parent="1" vertex="1">
          <mxGeometry x="5010" y="-850" width="130" height="30" as="geometry" />
        </mxCell>
        <mxCell id="CJZUKBydPEXCnxmFolZl-126" value="&lt;font style=&quot;font-size: 20px;&quot;&gt;Friday&lt;/font&gt;" style="text;html=1;align=center;verticalAlign=middle;whiteSpace=wrap;rounded=0;" parent="1" vertex="1">
          <mxGeometry x="5250" y="-850" width="130" height="30" as="geometry" />
        </mxCell>
        <mxCell id="CJZUKBydPEXCnxmFolZl-152" value="" style="ellipse;whiteSpace=wrap;html=1;aspect=fixed;fillColor=#121212;" parent="1" vertex="1">
          <mxGeometry x="2439.75" y="-923.75" width="7.5" height="7.5" as="geometry" />
        </mxCell>
        <mxCell id="CJZUKBydPEXCnxmFolZl-153" value="" style="ellipse;whiteSpace=wrap;html=1;aspect=fixed;" parent="1" vertex="1">
          <mxGeometry x="2613.75" y="-923.75" width="7.5" height="7.5" as="geometry" />
        </mxCell>
        <mxCell id="CJZUKBydPEXCnxmFolZl-156" value="" style="ellipse;whiteSpace=wrap;html=1;aspect=fixed;" parent="1" vertex="1">
          <mxGeometry x="4329.75" y="-923.75" width="7.5" height="7.5" as="geometry" />
        </mxCell>
        <mxCell id="CJZUKBydPEXCnxmFolZl-157" value="" style="ellipse;whiteSpace=wrap;html=1;aspect=fixed;fillColor=#0F0F0F;" parent="1" vertex="1">
          <mxGeometry x="4503.75" y="-923.75" width="7.5" height="7.5" as="geometry" />
        </mxCell>
        <mxCell id="CJZUKBydPEXCnxmFolZl-160" value="" style="group" parent="1" vertex="1" connectable="0">
          <mxGeometry x="4231" y="-790" width="222" height="108" as="geometry" />
        </mxCell>
        <mxCell id="CJZUKBydPEXCnxmFolZl-161" value="" style="rounded=1;whiteSpace=wrap;html=1;" parent="CJZUKBydPEXCnxmFolZl-160" vertex="1">
          <mxGeometry width="222" height="108" as="geometry" />
        </mxCell>
        <mxCell id="CJZUKBydPEXCnxmFolZl-162" value="Nazwa przedmiotu" style="text;html=1;align=center;verticalAlign=middle;whiteSpace=wrap;rounded=1;strokeColor=default;" parent="CJZUKBydPEXCnxmFolZl-160" vertex="1">
          <mxGeometry x="45.5" width="131" height="30" as="geometry" />
        </mxCell>
        <mxCell id="CJZUKBydPEXCnxmFolZl-163" value="Typ eventu(Kartkówka, kolos)" style="text;html=1;align=center;verticalAlign=middle;whiteSpace=wrap;rounded=0;" parent="CJZUKBydPEXCnxmFolZl-160" vertex="1">
          <mxGeometry y="39" width="180" height="30" as="geometry" />
        </mxCell>
        <mxCell id="CJZUKBydPEXCnxmFolZl-164" value="9:15 - 10:05" style="text;html=1;align=center;verticalAlign=middle;whiteSpace=wrap;rounded=0;" parent="CJZUKBydPEXCnxmFolZl-160" vertex="1">
          <mxGeometry x="9" y="70" width="70" height="30" as="geometry" />
        </mxCell>
        <mxCell id="CJZUKBydPEXCnxmFolZl-166" value="" style="group" parent="1" vertex="1" connectable="0">
          <mxGeometry x="4231" y="-663" width="222" height="108" as="geometry" />
        </mxCell>
        <mxCell id="CJZUKBydPEXCnxmFolZl-167" value="" style="rounded=1;whiteSpace=wrap;html=1;" parent="CJZUKBydPEXCnxmFolZl-166" vertex="1">
          <mxGeometry width="222" height="108" as="geometry" />
        </mxCell>
        <mxCell id="CJZUKBydPEXCnxmFolZl-168" value="Nazwa przedmiotu" style="text;html=1;align=center;verticalAlign=middle;whiteSpace=wrap;rounded=1;strokeColor=default;" parent="CJZUKBydPEXCnxmFolZl-166" vertex="1">
          <mxGeometry x="45.5" width="131" height="30" as="geometry" />
        </mxCell>
        <mxCell id="CJZUKBydPEXCnxmFolZl-169" value="Typ eventu(Kartkówka, kolos)" style="text;html=1;align=center;verticalAlign=middle;whiteSpace=wrap;rounded=0;" parent="CJZUKBydPEXCnxmFolZl-166" vertex="1">
          <mxGeometry y="39" width="180" height="30" as="geometry" />
        </mxCell>
        <mxCell id="CJZUKBydPEXCnxmFolZl-170" value="9:15 - 10:05" style="text;html=1;align=center;verticalAlign=middle;whiteSpace=wrap;rounded=0;" parent="CJZUKBydPEXCnxmFolZl-166" vertex="1">
          <mxGeometry x="9" y="70" width="70" height="30" as="geometry" />
        </mxCell>
        <mxCell id="CJZUKBydPEXCnxmFolZl-181" value="" style="group" parent="1" vertex="1" connectable="0">
          <mxGeometry x="4230" y="-536" width="222" height="108" as="geometry" />
        </mxCell>
        <mxCell id="CJZUKBydPEXCnxmFolZl-182" value="" style="rounded=1;whiteSpace=wrap;html=1;" parent="CJZUKBydPEXCnxmFolZl-181" vertex="1">
          <mxGeometry width="222" height="108" as="geometry" />
        </mxCell>
        <mxCell id="CJZUKBydPEXCnxmFolZl-183" value="Nazwa przedmiotu" style="text;html=1;align=center;verticalAlign=middle;whiteSpace=wrap;rounded=1;strokeColor=default;" parent="CJZUKBydPEXCnxmFolZl-181" vertex="1">
          <mxGeometry x="45.5" width="131" height="30" as="geometry" />
        </mxCell>
        <mxCell id="CJZUKBydPEXCnxmFolZl-184" value="Typ eventu(Kartkówka, kolos)" style="text;html=1;align=center;verticalAlign=middle;whiteSpace=wrap;rounded=0;" parent="CJZUKBydPEXCnxmFolZl-181" vertex="1">
          <mxGeometry y="39" width="180" height="30" as="geometry" />
        </mxCell>
        <mxCell id="CJZUKBydPEXCnxmFolZl-185" value="9:15 - 10:05" style="text;html=1;align=center;verticalAlign=middle;whiteSpace=wrap;rounded=0;" parent="CJZUKBydPEXCnxmFolZl-181" vertex="1">
          <mxGeometry x="9" y="70" width="70" height="30" as="geometry" />
        </mxCell>
        <mxCell id="CJZUKBydPEXCnxmFolZl-186" value="" style="group" parent="1" vertex="1" connectable="0">
          <mxGeometry x="4230" y="-408" width="222" height="108" as="geometry" />
        </mxCell>
        <mxCell id="CJZUKBydPEXCnxmFolZl-187" value="" style="rounded=1;whiteSpace=wrap;html=1;" parent="CJZUKBydPEXCnxmFolZl-186" vertex="1">
          <mxGeometry width="222" height="108" as="geometry" />
        </mxCell>
        <mxCell id="CJZUKBydPEXCnxmFolZl-188" value="Nazwa przedmiotu" style="text;html=1;align=center;verticalAlign=middle;whiteSpace=wrap;rounded=1;strokeColor=default;" parent="CJZUKBydPEXCnxmFolZl-186" vertex="1">
          <mxGeometry x="45.5" width="131" height="30" as="geometry" />
        </mxCell>
        <mxCell id="CJZUKBydPEXCnxmFolZl-189" value="Typ eventu(Kartkówka, kolos)" style="text;html=1;align=center;verticalAlign=middle;whiteSpace=wrap;rounded=0;" parent="CJZUKBydPEXCnxmFolZl-186" vertex="1">
          <mxGeometry y="39" width="180" height="30" as="geometry" />
        </mxCell>
        <mxCell id="CJZUKBydPEXCnxmFolZl-190" value="9:15 - 10:05" style="text;html=1;align=center;verticalAlign=middle;whiteSpace=wrap;rounded=0;" parent="CJZUKBydPEXCnxmFolZl-186" vertex="1">
          <mxGeometry x="9" y="70" width="70" height="30" as="geometry" />
        </mxCell>
        <mxCell id="CJZUKBydPEXCnxmFolZl-191" value="" style="group" parent="1" vertex="1" connectable="0">
          <mxGeometry x="4230" y="-281" width="222" height="108" as="geometry" />
        </mxCell>
        <mxCell id="CJZUKBydPEXCnxmFolZl-192" value="" style="rounded=1;whiteSpace=wrap;html=1;" parent="CJZUKBydPEXCnxmFolZl-191" vertex="1">
          <mxGeometry width="222" height="108" as="geometry" />
        </mxCell>
        <mxCell id="CJZUKBydPEXCnxmFolZl-193" value="Nazwa przedmiotu" style="text;html=1;align=center;verticalAlign=middle;whiteSpace=wrap;rounded=1;strokeColor=default;" parent="CJZUKBydPEXCnxmFolZl-191" vertex="1">
          <mxGeometry x="45.5" width="131" height="30" as="geometry" />
        </mxCell>
        <mxCell id="CJZUKBydPEXCnxmFolZl-194" value="Typ eventu(Kartkówka, kolos)" style="text;html=1;align=center;verticalAlign=middle;whiteSpace=wrap;rounded=0;" parent="CJZUKBydPEXCnxmFolZl-191" vertex="1">
          <mxGeometry y="39" width="180" height="30" as="geometry" />
        </mxCell>
        <mxCell id="CJZUKBydPEXCnxmFolZl-195" value="9:15 - 10:05" style="text;html=1;align=center;verticalAlign=middle;whiteSpace=wrap;rounded=0;" parent="CJZUKBydPEXCnxmFolZl-191" vertex="1">
          <mxGeometry x="9" y="70" width="70" height="30" as="geometry" />
        </mxCell>
        <mxCell id="CJZUKBydPEXCnxmFolZl-196" value="" style="ellipse;whiteSpace=wrap;html=1;aspect=fixed;" parent="1" vertex="1">
          <mxGeometry x="2660" y="-1080" width="15" height="15" as="geometry" />
        </mxCell>
        <mxCell id="CJZUKBydPEXCnxmFolZl-197" value="" style="ellipse;whiteSpace=wrap;html=1;aspect=fixed;fillColor=#121212;" parent="1" vertex="1">
          <mxGeometry x="2663.75" y="-1076.25" width="7.5" height="7.5" as="geometry" />
        </mxCell>
        <mxCell id="CJZUKBydPEXCnxmFolZl-199" style="edgeStyle=none;rounded=0;orthogonalLoop=1;jettySize=auto;html=1;exitX=0;exitY=0.5;exitDx=0;exitDy=0;" parent="1" source="CJZUKBydPEXCnxmFolZl-198" edge="1">
          <mxGeometry relative="1" as="geometry">
            <mxPoint x="2680" y="-1072.3333333333335" as="targetPoint" />
          </mxGeometry>
        </mxCell>
        <mxCell id="CJZUKBydPEXCnxmFolZl-198" value="что выбрано" style="text;html=1;align=center;verticalAlign=middle;whiteSpace=wrap;rounded=0;" parent="1" vertex="1">
          <mxGeometry x="2730" y="-1087.5" width="80" height="30" as="geometry" />
        </mxCell>
      </root>
    </mxGraphModel>
  </diagram>
</mxfile>
